HIERARCHY
ROOT Hips
{
	OFFSET -0.001795 -0.223333 0.028219
	CHANNELS 6 Xposition Yposition Zposition Zrotation Yrotation Xrotation 
	JOINT LeftUpLeg
	{
		OFFSET 0.069520 -0.091406 -0.006815
		CHANNELS 3 Zrotation Yrotation Xrotation
		JOINT LeftLeg
		{
			OFFSET 0.034277 -0.375199 -0.004496
			CHANNELS 3 Zrotation Yrotation Xrotation
			JOINT LeftFoot
			{
				OFFSET -0.013596 -0.397961 -0.043693
				CHANNELS 3 Zrotation Yrotation Xrotation
				JOINT LeftToe
				{
					OFFSET 0.026358 -0.055791 0.119288
					CHANNELS 3 Zrotation Yrotation Xrotation
					End Site
					{
						OFFSET 0.000000 0.000000 0.000000
					}
				}
			}
		}
	}
	JOINT RightUpLeg
	{
		OFFSET -0.067670 -0.090522 -0.004320
		CHANNELS 3 Zrotation Yrotation Xrotation
		JOINT RightLeg
		{
			OFFSET -0.038290 -0.382569 -0.008850
			CHANNELS 3 Zrotation Yrotation Xrotation
			JOINT RightFoot
			{
				OFFSET 0.015774 -0.398415 -0.042312
				CHANNELS 3 Zrotation Yrotation Xrotation
				JOINT RightToe
				{
					OFFSET -0.025372 -0.048144 0.123348
					CHANNELS 3 Zrotation Yrotation Xrotation
					End Site
					{
						OFFSET 0.000000 0.000000 0.000000
					}
				}
			}
		}
	}
	JOINT Spine
	{
		OFFSET -0.002533 0.108963 -0.026696
		CHANNELS 3 Zrotation Yrotation Xrotation
		JOINT Spine1
		{
			OFFSET 0.005487 0.135180 0.001092
			CHANNELS 3 Zrotation Yrotation Xrotation
			JOINT Spine2
			{
				OFFSET 0.001457 0.052922 0.025425
				CHANNELS 3 Zrotation Yrotation Xrotation
				JOINT Neck
				{
					OFFSET -0.002778 0.213870 -0.042857
					CHANNELS 3 Zrotation Yrotation Xrotation
					JOINT Head
					{
						OFFSET 0.005152 0.064970 0.051349
						CHANNELS 3 Zrotation Yrotation Xrotation
						End Site
						{
							OFFSET 0.000000 0.000000 0.000000
						}
					}
				}
				JOINT LeftShoulder
				{
					OFFSET 0.078845 0.121749 -0.034090
					CHANNELS 3 Zrotation Yrotation Xrotation
					JOINT LeftArm
					{
						OFFSET 0.090977 0.030469 -0.008868
						CHANNELS 3 Zrotation Yrotation Xrotation
						JOINT LeftForeArm
						{
							OFFSET 0.259612 -0.012772 -0.027456
							CHANNELS 3 Zrotation Yrotation Xrotation
							JOINT LeftHand
							{
								OFFSET 0.249234 0.008986 -0.001171
								CHANNELS 3 Zrotation Yrotation Xrotation
								End Site
								{
									OFFSET 0.000000 0.000000 0.000000
								}
							}
						}
					}
				}
				JOINT RightShoulder
				{
					OFFSET -0.081759 0.118833 -0.038615
					CHANNELS 3 Zrotation Yrotation Xrotation
					JOINT RightArm
					{
						OFFSET -0.096012 0.032551 -0.009143
						CHANNELS 3 Zrotation Yrotation Xrotation
						JOINT RightForeArm
						{
							OFFSET -0.253742 -0.013329 -0.021401
							CHANNELS 3 Zrotation Yrotation Xrotation
							JOINT RightHand
							{
								OFFSET -0.255298 0.007772 -0.005559
								CHANNELS 3 Zrotation Yrotation Xrotation
								End Site
								{
									OFFSET 0.000000 0.000000 0.000000
								}
							}
						}
					}
				}
			}
		}
	}
}
MOTION
Frames: 7
Frame Time: 0.050000
0.027250 0.921166 0.505301 -6.099786 -16.439451 16.551327 3.534945 -0.400055 -31.402387 -2.881022 1.129364 20.584397 4.836984 10.052543 -0.509061 0.000000 0.000000 0.000000 -10.414775 2.607974 -31.589273 0.812194 1.437832 21.754662 -0.061372 -7.682997 12.722735 0.000000 0.000000 0.000000 0.494124 -0.023668 28.729410 1.242663 -0.484777 -3.481798 -5.843242 9.686770 10.104202 16.089711 -3.851109 -35.358176 0.000000 0.000000 0.000000 2.233394 -26.924819 9.231381 -31.010688 -53.639328 8.981550 60.130945 -45.893181 -24.321467 0.000000 0.000000 0.000000 2.391876 13.822583 5.490656 53.082043 45.397291 16.123946 -69.167898 53.576012 -32.061753 0.000000 0.000000 0.000000 
0.025463 0.921259 0.506512 -6.011483 -16.845414 15.772460 3.515112 -0.409901 -30.349819 -2.829132 1.142283 20.570624 5.277428 10.990650 -0.947955 0.000000 0.000000 0.000000 -9.989517 2.864588 -33.194905 1.435448 1.630979 25.177913 -0.519591 -8.207441 11.830943 0.000000 0.000000 0.000000 0.523577 0.008620 28.925537 1.396685 -0.554488 -3.650637 -5.628280 9.460203 10.806324 16.088470 -3.713483 -36.492071 0.000000 0.000000 0.000000 1.858972 -26.590933 9.174912 -31.918683 -52.457918 9.046881 61.909739 -47.124642 -25.909427 0.000000 0.000000 0.000000 2.868218 14.000439 5.547660 52.933220 46.318768 16.390653 -67.536337 53.646603 -31.261496 0.000000 0.000000 0.000000 
0.021797 0.922307 0.509531 -5.984928 -16.735263 14.416495 3.472065 -0.502911 -28.694429 -2.575513 1.066391 20.703609 5.649303 11.813338 -0.675031 0.000000 0.000000 0.000000 -8.848323 3.069872 -33.568223 1.654755 1.866410 28.035815 -0.624593 -7.758990 10.447400 0.000000 0.000000 0.000000 0.562598 0.003547 29.410057 1.947572 -0.790701 -2.819764 -5.758470 8.843467 10.236986 16.452346 -4.208358 -35.016383 0.000000 0.000000 0.000000 0.328683 -27.146050 9.630854 -30.698692 -49.597536 7.803484 64.222020 -48.139374 -27.845382 0.000000 0.000000 0.000000 4.014803 13.641430 5.442600 52.500750 46.432237 16.216154 -66.788949 55.256275 -32.126498 0.000000 0.000000 0.000000 
0.016080 0.923210 0.514983 -6.208986 -16.460978 12.874934 3.718780 -0.518270 -26.992750 -2.351984 1.006287 21.081029 5.620937 11.772249 -1.018202 0.000000 0.000000 0.000000 -7.505715 3.340767 -34.081517 2.346091 1.940597 30.982324 -1.089019 -7.953672 8.894584 0.000000 0.000000 0.000000 0.630117 -0.033579 29.697159 2.457997 -1.014679 -2.814236 -5.624681 7.926627 10.863828 15.897609 -4.181174 -34.734420 0.000000 0.000000 0.000000 0.003215 -27.044173 9.675357 -31.428820 -47.934901 7.651701 66.589171 -48.603388 -29.326783 0.000000 0.000000 0.000000 4.705342 13.738229 5.415552 53.339000 45.618772 15.950636 -67.781597 57.716898 -34.841008 0.000000 0.000000 0.000000 
0.008445 0.922853 0.522879 -6.080310 -16.266520 12.215608 3.585337 -0.588170 -26.082799 -1.700460 0.781075 21.116226 5.592606 11.721872 -0.771327 0.000000 0.000000 0.000000 -6.709400 3.593348 -34.933057 2.488075 1.830387 30.620453 -1.728857 -8.591171 7.222899 0.000000 0.000000 0.000000 0.613600 -0.087496 28.794248 3.347302 -1.387410 -2.870453 -5.843557 7.453544 11.435849 15.105426 -4.057557 -34.169116 0.000000 0.000000 0.000000 -0.823509 -27.289484 9.944835 -32.505468 -46.878111 7.727414 68.552854 -48.864204 -30.473792 0.000000 0.000000 0.000000 5.280787 13.618528 5.341794 55.468314 43.909802 15.743783 -69.245315 61.265019 -38.630235 0.000000 0.000000 0.000000 
-0.000975 0.922791 0.532841 -5.700325 -16.315684 11.619156 3.382979 -0.669115 -23.994992 -1.319804 0.606098 19.980944 5.762454 12.148850 -2.707133 0.000000 0.000000 0.000000 -6.087234 3.865038 -35.860654 2.092905 1.750001 28.588730 -1.082954 -6.833765 6.441907 0.000000 0.000000 0.000000 0.544037 -0.093792 28.068871 3.752053 -1.550200 -3.236991 -6.049403 6.647641 11.744458 14.692425 -4.012004 -34.174338 0.000000 0.000000 0.000000 -2.272039 -26.841714 10.120362 -33.280008 -46.348451 7.890806 69.093607 -49.353129 -30.872185 0.000000 0.000000 0.000000 6.357566 14.558176 5.688242 56.560899 43.189017 15.604985 -69.684223 62.773878 -40.465754 0.000000 0.000000 0.000000 
-0.012362 0.921580 0.544412 -5.276357 -15.969102 11.174638 3.240109 -0.734838 -22.366915 -1.228617 0.519665 19.104495 5.928864 12.587818 -4.125983 0.000000 0.000000 0.000000 -5.405259 4.063701 -36.386688 0.898977 1.746156 25.212643 -0.260257 -5.437561 7.264799 0.000000 0.000000 0.000000 0.758211 -0.225128 26.985345 3.621152 -1.514680 -2.626581 -6.179045 5.773314 10.652741 13.501769 -3.781526 -32.896630 0.000000 0.000000 0.000000 -4.216298 -26.810528 10.566145 -34.049281 -46.108766 8.196737 69.675469 -50.486573 -31.880205 0.000000 0.000000 0.000000 7.457513 14.106502 5.451463 59.151393 40.769896 15.195913 -72.177148 65.838219 -45.160092 0.000000 0.000000 0.000000 
